<svg id="レイヤー_1" data-name="レイヤー 1" xmlns="http://www.w3.org/2000/svg" viewBox="0 0 436 395.2"><defs><style>.cls-1{fill:#21538e;}</style></defs><path class="cls-1" d="M751,385.51c-23.16,0-78.35,13.62-101,62.83v.5C627.35,399.62,572.16,386,549,386c-70.42,0-117,57.08-117,127.5,0,53.5,57.1,106.31,57.1,106.31L650,780.71v-.49L810.9,619.31S868,566.51,868,513C868,442.59,821.42,385.51,751,385.51Zm46.32,219.12-.28.27L649.75,752.18,503,605.39l-.28-.27C488.6,592,452,550,452,513.5c0-29.89,9.61-57.2,27.06-76.89C496.81,416.58,521,406,549,406c15.38,0,67.76,9.21,87,51l14,28,13-27c19.24-41.79,72.62-52.49,88-52.49,28,0,52.19,10.58,69.94,30.61C838.39,455.81,848,483.11,848,513,848,549.72,811.42,591.59,797.32,604.63Z" transform="translate(-432 -385.51)"/></svg>