<svg id="レイヤー_2" data-name="レイヤー 2" xmlns="http://www.w3.org/2000/svg" viewBox="0 0 550 271"><defs><style>.cls-1{fill:#f2f2f2;}</style></defs><path class="cls-1" d="M573,479c-208,0-276,168-276,168S420.31,750,573,750c139,0,274-104,274-104S781.06,479,573,479ZM831,646.89s-91.28,67-198.71,87.31a126,126,0,0,0,14.48-213.35C775.69,549.5,831,646.89,831,646.89ZM530,571a29,29,0,1,1-29-29A29,29,0,0,1,530,571Zm-31.16-49.86A126,126,0,0,0,512.5,733.55C407.15,712.33,314,646,314,646S371,550,498.84,521.14Z" transform="translate(-297 -479)"/></svg>