<svg id="contents" xmlns="http://www.w3.org/2000/svg" viewBox="0 0 438.92 571"><defs><style>.cls-1{fill:#fff;}.cls-2{fill:none;stroke:#fff;stroke-miterlimit:10;}</style></defs><path class="cls-1" d="M520.38,596.75v-25H318.87v25Zm0-63.67v-25H318.87v25Zm0-187.69V220.16H318.86V345.39ZM619,161V639a46.14,46.14,0,0,1-46,46H211V620H201a20,20,0,1,1,0-40H211V520H201a20,20,0,1,1,0-40H211V420H201a20,20,0,1,1,0-40H211V320H201a20,20,0,1,1,0-40H211V220H201a20,20,0,1,1,0-40h10V115.31L573,115A46.14,46.14,0,0,1,619,161Z" transform="translate(-180.54 -114.5)"/><path class="cls-2" d="M573,115l-362,.31V180H201a20,20,0,1,0,0,40H211v60H201a20,20,0,1,0,0,40H211v60H201a20,20,0,1,0,0,40H211v60H201a20,20,0,1,0,0,40H211v60H201a20,20,0,1,0,0,40H211v65H573a46.14,46.14,0,0,0,46-46V161A46.14,46.14,0,0,0,573,115Z" transform="translate(-180.54 -114.5)"/></svg>